# xmcd
#
# Track frame offsets:
#	150
#	14376
#	30050
#	41352
#	53501
#	66607
#	77492
#	90410
#	103545
#	115720
#	130534
#	144813
#	156715
#	170559
#	187181
#	203788
#	217909
#	233257
#
# Disc length: 3275 seconds
#
# Revision: 0
# Processed by: cddbd v1.5.2PL0 Copyright (c) Steve Scherf et al.
# Submitted via: EasyCDDAExtractor 16.0.6.1
#
DISCID=db0cc912
DTITLE=Διονυσίου Στράτος - Τραγούδια 45 στροφές-Διονυσίου Στράτος 3
DYEAR=1998
DGENRE=Λαϊκή
TTITLE0=Διονυσίου Στράτος-Μοσχολιού Βίκυ - Όρκο κάνω στον Θεό [1964, Γιάννη Κα
TTITLE0=ραμπεσίνη]
TTITLE1=Διονυσίου Στράτος-Ρεπάνης Αντώνης - Εγώ γράμματα δεν ξέρω [1962, Απ. Κ
TTITLE1=αλδάρα]
TTITLE2=Διονυσίου Στράτος - Ξανά καταστροφές [1966, Χρ. Κολοκοτρώνη]
TTITLE3=Διονυσίου Στράτος-Γκίκα Βούλα - Εσύ είσαι το κορίτσι μου [1965, Ν. Μου
TTITLE3=ρκάκου]
TTITLE4=Διονυσίου Στράτος - Ζητούσα περιπέτειες [1965, Α. Κατινάρη-Χ. Βασιλειά
TTITLE4=δη]
TTITLE5=Διονυσίου Στράτος-Δαλιάνης Μπάμπης - Άνοιξέ μου την καρδιά σου [1964, 
TTITLE5=Χρ. Κολοκοτρώνη]
TTITLE6=Διονυσίου Στράτος - Παλάτια σε παράγκες [1964, Μπ. Μαρκάκη]
TTITLE7=Διονυσίου Στράτος - Αφού το ξέρω πως θα πεθάνω [1963, Ν. Ταλαγιάννη-Ευ
TTITLE7=αγγ. Δήμου]
TTITLE8=Διονυσίου Στράτος-Αργυρού Χριστίνα - Καλά μού 'λέγαν [1966, Χρ. Κολοκο
TTITLE8=τρώνη]
TTITLE9=Διονυσίου Στράτος - Σαν το έρημο πουλί [1964, Γιάννη Καραμπεσίνη]
TTITLE10=Διονυσίου Στράτος - Μέσα απ' το λαό [1964, Μπ. Μαρκάκη]
TTITLE11=Διονυσίου Στράτος-Χιώτης Μανώλης - Ντέρι, ντέρι [1964, Μ. Χιώτη]
TTITLE12=Διονυσίου Στράτος-Γκίκα Βούλα - Τώρα να φύγεις [1965, Α. Κατινάρη]
TTITLE13=Διονυσίου Στράτος - Το ποτάμι [1962, Β. Τσιτσάνη-Ε. Τσαγκλή]
TTITLE14=Διονυσίου Στράτος - Οι μετανάστες [1961, Μπ. Δαλιάνη-Χρ. Κολοκοτρώνη]
TTITLE15=Διονυσίου Στράτος-Γκίκα Βούλα - Είμαι παιδί της Κατοχής [1965, Δ. Τζά
TTITLE15=ρα-Α. Νεράτζη]
TTITLE16=Διονυσίου Στράτος - Κι αν δεν σε θέλει η μάννα σου [1964, Στ. Χρυσίνη
TTITLE16=Κ. Ζήτη]
TTITLE17=Διονυσίου Στράτος - Αγιαζίν [1961, Θ. Δερβενιώτη-Κ. Βίρβου]
EXTD=
EXTT0=
EXTT1=
EXTT2=
EXTT3=
EXTT4=
EXTT5=
EXTT6=
EXTT7=
EXTT8=
EXTT9=
EXTT10=
EXTT11=
EXTT12=
EXTT13=
EXTT14=
EXTT15=
EXTT16=
EXTT17=
PLAYORDER=
